<?xml version="1.0" standalone="no"?>
<!DOCTYPE svg PUBLIC "-//W3C//DTD SVG 20010904//EN"
 "http://www.w3.org/TR/2001/REC-SVG-20010904/DTD/svg10.dtd">
<svg version="1.0" xmlns="http://www.w3.org/2000/svg"
 width="512.000000pt" height="512.000000pt" viewBox="0 0 512.000000 512.000000"
 preserveAspectRatio="xMidYMid meet">

<g transform="translate(0.000000,512.000000) scale(0.100000,-0.100000)"
fill="#000000" stroke="none">
<path d="M2370 5113 c-371 -35 -653 -114 -961 -269 -406 -203 -782 -548 -1029
-944 -179 -286 -309 -655 -362 -1025 -17 -118 -17 -512 0 -630 42 -295 120
-553 242 -800 137 -280 272 -468 494 -691 218 -217 408 -355 677 -488 614
-306 1323 -349 1976 -121 152 52 422 181 492 234 l24 19 -83 131 c-45 72 -85
131 -87 131 -2 0 -37 -19 -76 -42 -225 -131 -510 -230 -792 -275 -154 -24
-498 -24 -650 1 -497 80 -907 288 -1256 636 -345 344 -555 759 -636 1255 -24
153 -24 496 0 650 81 497 291 912 636 1255 349 348 759 555 1256 636 153 25
496 25 650 1 651 -106 1186 -448 1546 -991 172 -259 285 -549 340 -871 26
-152 38 -521 20 -608 -38 -179 -178 -325 -358 -372 -249 -65 -511 94 -578 350
-13 50 -15 151 -15 647 l0 588 -160 0 -160 0 0 -60 0 -59 -68 67 c-438 432
-1097 493 -1612 149 -96 -64 -273 -241 -337 -337 -95 -142 -163 -302 -199
-470 -26 -119 -26 -381 0 -500 55 -257 169 -466 355 -651 185 -186 395 -300
651 -355 119 -25 372 -26 490 -1 374 80 657 284 866 625 1 2 35 -31 75 -73
361 -380 963 -326 1250 113 95 144 120 244 126 488 12 460 -71 847 -263 1233
-124 250 -263 447 -458 648 -214 222 -430 379 -711 518 -296 146 -572 225
-900 255 -102 9 -333 11 -415 3z m421 -1622 c179 -46 319 -127 449 -260 129
-130 212 -278 257 -457 24 -95 24 -333 0 -428 -46 -185 -125 -324 -262 -461
-179 -178 -372 -266 -621 -282 -462 -28 -876 282 -991 743 -24 95 -24 333 0
428 45 179 128 327 257 457 147 150 309 236 513 275 100 19 299 12 398 -15z"/>
</g>
</svg>
