<?xml version="1.0" encoding="UTF-8"?>
<svg version="1.1" xmlns="http://www.w3.org/2000/svg" width="512" height="512">
<path d="M0 0 C1.01823853 0.00215515 2.03647705 0.0043103 3.08557129 0.00653076 C17.7097884 0.05623391 32.00304638 0.37042012 46.375 3.3125 C47.37160645 3.50585938 48.36821289 3.69921875 49.39501953 3.8984375 C88.01368568 11.52914208 124.14015454 27.25047736 155.375 51.3125 C156.18710937 51.93253906 156.99921875 52.55257812 157.8359375 53.19140625 C175.50816133 66.98912044 192.18548469 83.15996957 205.375 101.3125 C205.85775391 101.96686035 206.34050781 102.6212207 206.83789062 103.29541016 C230.33805052 135.23481232 246.20111425 171.26457941 253.375 210.3125 C253.53581055 211.11848633 253.69662109 211.92447266 253.86230469 212.75488281 C259.26588653 240.59725606 259.01511533 273.5373866 253.375 301.3125 C253.19807617 302.21291016 253.02115234 303.11332031 252.83886719 304.04101562 C251.5399419 310.51545153 250.03361797 316.92124463 248.375 323.3125 C248.16004883 324.14313965 247.94509766 324.9737793 247.72363281 325.82958984 C235.66760518 371.28748178 210.21310591 409.42291955 177.375 442.4375 C176.63233887 443.18491455 175.88967773 443.9323291 175.12451172 444.70239258 C174.42342285 445.40130615 173.72233398 446.10021973 173 446.8203125 C172.37351562 447.44566895 171.74703125 448.07102539 171.1015625 448.71533203 C169.375 450.3125 169.375 450.3125 166.375 452.3125 C167.2826483 457.83313731 168.28997453 463.16731392 170 468.5 C172.61237229 477.9749254 173.0091167 487.90467528 168.8125 496.9375 C166.01183852 501.76667798 163.11197478 505.34451995 158.375 508.3125 C157.75367188 508.72242188 157.13234375 509.13234375 156.4921875 509.5546875 C149.51257762 513.40276139 141.11454955 513.56304524 133.375 512.3125 C124.67274118 509.5546733 118.36125882 505.02207662 114.1328125 496.9375 C111.375 491.00344828 111.375 491.00344828 111.375 488.3125 C110.24707031 488.80878906 109.11914062 489.30507813 107.95703125 489.81640625 C77.95634194 502.84123747 45.52556779 512.34278399 12.58203125 512.515625 C11.68149017 512.52263931 10.7809491 512.52965363 9.8531189 512.53688049 C6.96452774 512.55427902 4.07614163 512.5607324 1.1875 512.5625 C0.20012848 512.56317474 -0.78724304 512.56384949 -1.80453491 512.56454468 C-16.29588264 512.54879657 -30.36520251 512.09591075 -44.625 509.3125 C-45.52202637 509.15152832 -46.41905273 508.99055664 -47.34326172 508.82470703 C-69.21173841 504.86762651 -90.56189702 497.86782163 -110.625 488.3125 C-110.77195313 488.869375 -110.91890625 489.42625 -111.0703125 490 C-113.93868034 499.75904462 -118.50507731 505.19420257 -127.35546875 510.18359375 C-134.66566702 513.81981974 -144.42528797 513.62053044 -152.13671875 511.21875 C-158.24570888 508.33671702 -163.01725231 505.07056089 -166.625 499.3125 C-167.23988281 498.38050781 -167.23988281 498.38050781 -167.8671875 497.4296875 C-173.56857196 487.08855568 -171.09327769 474.82460054 -168.0625 464.0625 C-167.69330444 462.84747803 -167.69330444 462.84747803 -167.31665039 461.60791016 C-167.0871167 460.84526855 -166.85758301 460.08262695 -166.62109375 459.296875 C-166.29902954 458.28705566 -166.29902954 458.28705566 -165.97045898 457.25683594 C-165.54789215 454.87851631 -165.72763989 453.55646218 -166.625 451.3125 C-168.147334 449.63583445 -168.147334 449.63583445 -170.10546875 448.12890625 C-183.03091722 437.3102109 -194.75448819 424.96875737 -204.625 411.3125 C-205.09953613 410.6716748 -205.57407227 410.03084961 -206.06298828 409.37060547 C-232.49586476 373.66604774 -248.96747077 332.39167119 -254.625 288.3125 C-254.71232895 287.64529434 -254.7996579 286.97808868 -254.88963318 286.29066467 C-255.58587492 280.5742952 -255.79956148 274.93507373 -255.828125 269.1796875 C-255.83518463 268.2333847 -255.84224426 267.28708191 -255.84951782 266.31210327 C-256.07528019 227.16699372 -256.07528019 227.16699372 -252.625 210.3125 C-252.33496094 208.81759033 -252.33496094 208.81759033 -252.0390625 207.29248047 C-244.41040781 168.68418872 -228.69757683 132.53083121 -204.625 101.3125 C-203.66013672 100.05953125 -203.66013672 100.05953125 -202.67578125 98.78125 C-188.57295377 80.82715922 -172.21896589 63.63892592 -153.625 50.3125 C-153.08327148 49.920625 -152.54154297 49.52875 -151.98339844 49.125 C-121.06865283 26.84146078 -86.69401468 11.73961685 -49.375 4.0625 C-48.64442383 3.91127686 -47.91384766 3.76005371 -47.16113281 3.60424805 C-31.46684491 0.57387475 -15.9450952 -0.06071045 0 0 Z M-168.4375 91.875 C-174.23673185 97.72130234 -179.64233239 103.74647123 -184.625 110.3125 C-185.2739624 111.16279785 -185.2739624 111.16279785 -185.93603516 112.03027344 C-207.73375283 140.71268473 -223.08799602 173.02746673 -230.625 208.3125 C-230.83527832 209.28832031 -231.04555664 210.26414063 -231.26220703 211.26953125 C-236.98346422 239.20992265 -237.56398339 271.35904965 -231.625 299.3125 C-231.42100586 300.29879395 -231.21701172 301.28508789 -231.00683594 302.30126953 C-223.2549107 338.94519561 -208.0261592 372.97396432 -184.625 402.3125 C-183.94268311 403.17053223 -183.94268311 403.17053223 -183.24658203 404.04589844 C-177.86711736 410.74811785 -172.10617371 417.0162906 -166.0625 423.125 C-165.15008545 424.05143311 -165.15008545 424.05143311 -164.21923828 424.99658203 C-161.44035338 428.20981142 -161.44035338 428.20981142 -157.625 429.3125 C-155.71684318 422.55532997 -153.83110931 415.79219489 -151.9609375 409.02441406 C-151.32190037 406.72219189 -150.67771709 404.42139178 -150.02832031 402.12207031 C-149.09649149 398.81934979 -148.18320752 395.5119799 -147.2734375 392.203125 C-146.9787558 391.17382874 -146.6840741 390.14453247 -146.38046265 389.08404541 C-146.12004181 388.12335144 -145.85962097 387.16265747 -145.59130859 386.17285156 C-145.35592377 385.32901917 -145.12053894 384.48518677 -144.87802124 383.61578369 C-144.30440612 378.39409424 -148.70186756 374.44083137 -151.6875 370.5 C-173.65195669 340.90168718 -188.60141275 304.0242453 -188.828125 266.82421875 C-188.83864647 265.65888107 -188.83864647 265.65888107 -188.84938049 264.47000122 C-188.86676732 261.979941 -188.87323173 259.49011867 -188.875 257 C-188.87567474 256.148685 -188.87634949 255.29737 -188.87704468 254.42025757 C-188.86117102 241.8229529 -188.47115674 229.6356645 -185.625 217.3125 C-185.45339355 216.54067383 -185.28178711 215.76884766 -185.10498047 214.97363281 C-174.15525509 166.8104976 -145.2465081 123.43485801 -103.40698242 96.78051758 C-89.50931055 88.1978247 -75.08694529 81.12540587 -59.58544922 75.96875 C-57.89270014 75.40211121 -56.21250657 74.79821668 -54.53515625 74.1875 C-49.19628838 72.34480909 -44.12301378 71.53604565 -38.625 73.3125 C-35.73753317 75.54281921 -35.60447446 76.4033988 -34.75 80.1875 C-34.50176988 83.06591308 -34.63845957 84.34812828 -35.6875 87.125 C-40.15091308 92.16433735 -47.21339808 93.54463052 -53.4375 95.5 C-78.63021236 103.71672696 -99.27089074 117.30069186 -118.625 135.3125 C-119.34171875 135.96347656 -120.0584375 136.61445313 -120.796875 137.28515625 C-144.15777246 159.40980184 -158.05185144 189.50397349 -165.625 220.3125 C-165.80434082 221.00472656 -165.98368164 221.69695312 -166.16845703 222.41015625 C-171.50669293 243.74189533 -171.10816569 271.06523295 -165.625 292.3125 C-165.43164062 293.11010742 -165.23828125 293.90771484 -165.0390625 294.72949219 C-160.25700719 314.18980062 -152.8722189 339.29876397 -137.625 353.3125 C-137.46942627 352.76537354 -137.31385254 352.21824707 -137.15356445 351.65454102 C-136.14262457 348.10159743 -135.13150828 344.54876695 -134.109375 340.99902344 C-132.81152572 336.49126089 -131.52779293 331.98315348 -130.32421875 327.44921875 C-127.32243229 316.31602609 -124.117735 307.88134093 -114.0625 301.4609375 C-111.43059821 300.22090685 -109.24312264 299.94662357 -106.375 299.5625 C-103.76341043 299.10256657 -103.76341043 299.10256657 -101.625 297.3125 C-98.72413678 291.50924196 -96.625 283.83044077 -96.625 277.3125 C-97.759375 276.96058594 -98.89375 276.60867188 -100.0625 276.24609375 C-110.91586728 272.7470259 -118.98033497 269.7263774 -124.5625 259.1875 C-129.87645616 247.91110489 -127.0086927 237.76679769 -123.9375 226.3125 C-123.54091161 224.81060031 -123.14484867 223.30856179 -122.74926758 221.80639648 C-121.87456327 218.49407776 -120.99235997 215.18384864 -120.10644531 211.87451172 C-118.76302513 206.8472753 -117.44821159 201.81283896 -116.13648987 196.7772522 C-114.99090849 192.39086302 -113.83241509 188.00795023 -112.67098999 183.62573242 C-112.09978111 181.46281003 -111.53288766 179.29874326 -110.97036743 177.13354492 C-110.17433654 174.07626905 -109.36082723 171.02415449 -108.54296875 167.97265625 C-108.30778534 167.05436539 -108.07260193 166.13607452 -107.83029175 165.18995667 C-106.57078113 160.56552455 -105.61607052 157.30943934 -101.625 154.3125 C-99.17722161 153.0886108 -97.89109459 153.296136 -95.1875 153.5625 C-94.40503906 153.62953125 -93.62257812 153.6965625 -92.81640625 153.765625 C-90.04647993 154.45687221 -89.197704 154.90775383 -87.625 157.3125 C-86.16983975 164.12981294 -87.26101969 169.17699915 -89.1875 175.796875 C-89.45763916 176.77489075 -89.72777832 177.75290649 -90.00610352 178.76055908 C-90.86509259 181.86530972 -91.74332789 184.96412111 -92.625 188.0625 C-93.50483849 191.17558972 -94.38021066 194.28967608 -95.24389648 197.4072876 C-95.78042345 199.34213698 -96.32648105 201.27437446 -96.88305664 203.20355225 C-97.12660889 204.07836243 -97.37016113 204.95317261 -97.62109375 205.85449219 C-97.83950928 206.62090027 -98.0579248 207.38730835 -98.28295898 208.17694092 C-98.82110258 210.64133591 -98.82110258 210.64133591 -97.625 214.3125 C-92.015 215.6325 -86.405 216.9525 -80.625 218.3125 C-80.11710938 216.46269531 -79.60921875 214.61289063 -79.0859375 212.70703125 C-78.02734911 208.8545441 -76.96698157 205.00259618 -75.89941406 201.15258789 C-75.71644775 200.49273392 -75.53348145 199.83287994 -75.3449707 199.1530304 C-74.97315108 197.8122569 -74.60124295 196.47150795 -74.22924805 195.13078308 C-73.09729628 191.04330799 -71.99005191 186.94997249 -70.8984375 182.8515625 C-70.39086252 180.98431042 -69.88306631 179.11711845 -69.375 177.25 C-69.15376465 176.39575439 -68.9325293 175.54150879 -68.70458984 174.66137695 C-67.4804282 170.22413179 -66.46942913 167.17156088 -62.625 164.3125 C-59.31550498 163.32669297 -57.28518742 163.14361485 -53.9375 164 C-51.15129172 165.58136146 -50.0381401 166.411844 -48.625 169.3125 C-48.20278134 176.3686563 -49.35472923 182.26329357 -51.25 189.03515625 C-51.51635254 190.02124374 -51.78270508 191.00733124 -52.05712891 192.02330017 C-52.90252287 195.14352262 -53.7634745 198.25919763 -54.625 201.375 C-55.20416195 203.501671 -55.78229741 205.62862183 -56.359375 207.75585938 C-57.76939566 212.94470132 -59.19218228 218.12990964 -60.625 223.3125 C-54.3715965 225.9082524 -48.30683363 227.2684635 -41.625 228.3125 C-41.46879684 227.7222554 -41.31259369 227.1320108 -41.1516571 226.52388 C-39.52229717 220.37319137 -37.88209061 214.22546907 -36.2355957 208.0793457 C-35.62278884 205.7861417 -35.01273828 203.49219926 -34.40551758 201.19750977 C-33.53151921 197.89661158 -32.64759681 194.59850828 -31.76171875 191.30078125 C-31.49284348 190.27664627 -31.2239682 189.25251129 -30.94694519 188.19734192 C-28.46987069 179.04684845 -28.46987069 179.04684845 -25.625 175.3125 C-21.85061386 173.42530693 -17.2011945 173.81475437 -13.25 175.0625 C-11.12890694 176.69411004 -10.45548047 177.75185188 -9.625 180.3125 C-9.35384774 185.54879247 -10.11053827 190.12382713 -11.48925781 195.14038086 C-11.68765762 195.88933121 -11.88605743 196.63828156 -12.09046936 197.40992737 C-12.7442523 199.8681739 -13.41072136 202.32276321 -14.078125 204.77734375 C-14.53988616 206.49681417 -15.00112042 208.21642618 -15.46185303 209.93617249 C-16.42802081 213.5344519 -17.40047885 217.13095532 -18.37744141 220.72631836 C-19.62437281 225.31715917 -20.85568925 229.91201504 -22.08229446 234.50832272 C-23.03175724 238.05921849 -23.98948551 241.60784484 -24.94966888 245.15585518 C-25.40665565 246.84832722 -25.86113001 248.54147983 -26.31296539 250.2353344 C-26.94801575 252.61098485 -27.5941665 254.98335194 -28.24316406 257.35522461 C-28.42514847 258.04482269 -28.60713287 258.73442078 -28.79463196 259.44491577 C-30.86683791 266.91941528 -33.71445418 273.12275245 -39.625 278.3125 C-40.346875 279.01375 -41.06875 279.715 -41.8125 280.4375 C-49.51084677 285.56973118 -58.18809254 286.38266052 -67.078125 284.6328125 C-70.27453644 283.90635536 -73.45243044 283.13628931 -76.625 282.3125 C-77.4928228 285.41301447 -78.34186767 288.51836665 -79.1875 291.625 C-79.43435547 292.50607422 -79.68121094 293.38714844 -79.93554688 294.29492188 C-80.16435547 295.14248047 -80.39316406 295.99003906 -80.62890625 296.86328125 C-80.84361572 297.64356689 -81.0583252 298.42385254 -81.27954102 299.2277832 C-81.82253457 301.49833794 -81.82253457 301.49833794 -80.625 304.3125 C-79.861875 305.075625 -79.09875 305.83875 -78.3125 306.625 C-72.33185647 312.60564353 -69.60344685 318.62261814 -69.33203125 327.06762695 C-69.39615039 334.68185365 -71.52841477 341.7707556 -73.5625 349.04296875 C-73.96727628 350.52907415 -74.37081967 352.01551584 -74.77319336 353.50227356 C-75.82627368 357.38043426 -76.89584013 361.25385224 -77.96911621 365.12646484 C-79.06508802 369.0926059 -80.14511474 373.06308227 -81.2265625 377.03320312 C-83.34395002 384.79725535 -85.4788052 392.5563617 -87.625 400.3125 C-84.65217872 403.49086488 -81.2441395 405.23076243 -77.375 407.125 C-76.66263184 407.4753833 -75.95026367 407.8257666 -75.21630859 408.18676758 C-34.02223781 428.16448022 12.31977755 431.88052402 55.85351562 416.86694336 C67.17635643 412.77083418 78.11674162 407.63127512 88.375 401.3125 C86.92372541 391.49885712 86.92372541 391.49885712 83.375 382.3125 C80.07869437 380.19313034 77.51599955 379.69186402 73.67578125 379.03515625 C68.28781411 377.85554214 64.75416094 374.55900205 61.375 370.3125 C58.05404894 364.65073892 56.18087188 358.81849741 54.53759766 352.49780273 C54.2833049 351.54846863 54.02901215 350.59913452 53.76701355 349.62103271 C52.93273271 346.49819559 52.1108323 343.3722442 51.2890625 340.24609375 C50.70455107 338.04798406 50.11928174 335.85007578 49.53329468 333.65235901 C47.9924197 327.86495796 46.46209133 322.07481847 44.93389893 316.28405762 C43.39737114 310.46953363 41.85048589 304.6577679 40.3046875 298.84570312 C37.50274999 288.30208705 34.70407592 277.75762934 31.92910767 267.20687866 C30.85327851 263.11706261 29.76530179 259.03068229 28.67123413 254.94570923 C28.12186613 252.8786283 27.57259722 250.81152104 27.0234375 248.74438477 C26.76781351 247.79846938 26.51218952 246.852554 26.24881935 245.87797451 C24.47055194 239.15152412 23.47346629 232.79513377 23.75 225.8125 C23.7718335 224.81822998 23.79366699 223.82395996 23.81616211 222.79956055 C24.48224016 204.53062697 31.54794857 188.43924889 44.375 175.3125 C53.57929867 167.24280325 66.65520159 157.61714028 79.5625 158.375 C84.14184098 159.50106745 84.84176431 160.44227317 87.375 164.3125 C88.28529504 166.84868556 89.02694242 169.24263168 89.68310547 171.84057617 C89.98276954 172.96330634 89.98276954 172.96330634 90.28848743 174.10871792 C90.95154167 176.60467737 91.59674771 179.10490159 92.2421875 181.60546875 C92.71353727 183.39331343 93.18604363 185.18085354 93.65962219 186.96810913 C94.67324812 190.80267645 95.67916148 194.63915241 96.67904663 198.47732544 C98.25710793 204.53431604 99.85215345 210.58674699 101.45043945 216.63842773 C103.101357 222.89244119 104.75124229 229.14671577 106.39527893 235.40254211 C111.58157844 255.13619466 116.84458938 274.84889197 122.1350708 294.55484009 C123.30988979 298.93156169 124.4814289 303.30915283 125.65178776 307.68706894 C126.53253728 310.98027536 127.41508287 314.27299859 128.29808617 317.56560135 C128.70027464 319.06650586 129.10182395 320.56758184 129.50261879 322.0688591 C132.29730235 332.53337052 135.27856762 342.93329255 138.375 353.3125 C154.05071912 337.87532876 161.26427967 313.10355692 166.375 292.3125 C166.55434082 291.62027344 166.73368164 290.92804688 166.91845703 290.21484375 C176.53154488 251.80067743 167.86282619 205.83455748 148.08056641 172.10546875 C140.39087874 159.44331685 131.46358919 148.15292512 121.375 137.3125 C120.72402344 136.59578125 120.07304687 135.8790625 119.40234375 135.140625 C99.68458967 114.32110817 73.36673152 101.05719695 46.29150391 92.70800781 C45.4360498 92.43827148 44.5805957 92.16853516 43.69921875 91.890625 C42.93697998 91.65762695 42.17474121 91.42462891 41.3894043 91.18457031 C39.10093441 90.19385229 37.90854761 89.27483463 36.375 87.3125 C34.85359495 80.57484907 34.85359495 80.57484907 36.5625 76.4375 C38.47259218 74.19808158 39.67552994 73.39407473 42.375 72.3125 C49.31292822 71.96797811 56.21344031 74.56443913 62.6875 76.75 C63.73276855 77.10199463 64.77803711 77.45398926 65.85498047 77.81665039 C90.95077691 86.55431166 113.12654853 101.10782421 132.375 119.3125 C133.66470703 120.50552734 133.66470703 120.50552734 134.98046875 121.72265625 C166.39835474 151.7804606 188.41516021 197.84723044 189.53613281 241.50512695 C189.55558977 242.93694794 189.56939825 244.36885466 189.578125 245.80078125 C189.58513931 246.57767303 189.59215363 247.35456482 189.59938049 248.15499878 C189.61676732 250.645059 189.62323173 253.13488133 189.625 255.625 C189.62567474 256.476315 189.62634949 257.32763 189.62704468 258.20474243 C189.6111664 270.80571474 189.20885345 282.98412181 186.375 295.3125 C186.20871094 296.07369141 186.04242188 296.83488281 185.87109375 297.61914062 C179.88727864 324.4576595 168.24211634 354.72779378 148.87353516 374.87426758 C147.23424844 376.51420594 147.23424844 376.51420594 145.375 379.3125 C145.31466793 382.58916468 145.31466793 382.58916468 146.5 386.125 C146.68723633 386.81134521 146.87447266 387.49769043 147.06738281 388.20483398 C147.52386388 389.8660718 147.99475474 391.5233803 148.47558594 393.17773438 C149.5806718 397.02933657 150.62335811 400.89621901 151.6640625 404.765625 C153.87145158 412.95615366 156.11520406 421.13629208 158.375 429.3125 C163.1529711 427.16683402 166.28925985 423.74027536 169.9375 420.0625 C170.65059326 419.34449219 171.36368652 418.62648438 172.09838867 417.88671875 C178.4284173 411.41763914 184.0765253 404.64162363 189.375 397.3125 C189.82149902 396.69971191 190.26799805 396.08692383 190.72802734 395.45556641 C227.0254541 345.26192522 243.12957236 282.1439599 233.75 220.625 C233.05634982 216.49690497 232.25674161 212.4043216 231.375 208.3125 C231.16601074 207.33410156 230.95702148 206.35570312 230.74169922 205.34765625 C219.22718589 153.39003206 189.023781 103.67676569 146.375 71.3125 C145.80813477 70.8798584 145.24126953 70.4472168 144.65722656 70.00146484 C65.70656884 10.00148334 -45.31981283 3.09219296 -168.4375 91.875 Z M61.375 188.3125 C60.70726562 188.84617188 60.03953125 189.37984375 59.3515625 189.9296875 C50.73061096 197.59654163 44.89492634 209.6073463 44.12051392 221.08390808 C43.78465475 232.68609883 45.71824508 242.80303039 48.8359375 253.92578125 C49.30719244 255.67176776 49.77643164 257.41829941 50.24380493 259.16532898 C51.47286188 263.73827379 52.72852635 268.30347196 53.99047852 272.86743164 C55.23497783 277.38579222 56.45449641 281.91086746 57.67578125 286.43554688 C59.36227268 292.67596648 61.06112503 298.91276004 62.77603531 305.14542961 C64.96494524 313.10183708 67.10814842 321.0677562 69.19238281 329.05224609 C69.8644344 331.60802455 70.53740979 334.16355795 71.21068192 336.71901512 C71.63325885 338.33377976 72.05147075 339.94969391 72.46500778 341.56679726 C73.03412467 343.79132679 73.61824532 346.01142033 74.20556641 348.23120117 C74.52957428 349.48341965 74.85358215 350.73563812 75.18740845 352.02580261 C76.64676385 356.06461509 78.43730205 359.34365103 82.375 361.3125 C89.95377517 361.9621093 96.6288225 359.8748736 103.875 357.8125 C105.07898438 357.47863281 106.28296875 357.14476562 107.5234375 356.80078125 C110.47663191 355.98044947 113.42687089 355.15081848 116.375 354.3125 C115.68805307 348.51649657 114.35380574 343.03150375 112.83740234 337.40063477 C112.57823941 336.42546559 112.31907648 335.45029642 112.05206013 334.44557667 C111.19218682 331.21398447 110.32658448 327.9839562 109.4609375 324.75390625 C108.85193521 322.46986924 108.24328424 320.18573853 107.63496399 317.90151978 C106.01219916 311.81213438 104.384488 305.72408149 102.75576401 299.63628769 C101.08539333 293.38954925 99.4195413 287.14160609 97.75317383 280.89379883 C94.24252678 267.7346388 90.72548527 254.57719404 87.20623016 241.42033386 C86.2019358 237.66544123 85.19804871 233.91043982 84.19422531 230.15542126 C79.93027891 214.20533013 75.66037888 198.25684843 71.375 182.3125 C67.43003426 182.3125 64.31376931 185.91371657 61.375 188.3125 Z M-104.625 234.3125 C-107.22606681 242.00288091 -107.22606681 242.00288091 -106.6875 249.875 C-102.49611836 254.82845103 -96.237269 256.17845937 -90.19140625 257.828125 C-89.39524399 258.04821228 -88.59908173 258.26829956 -87.77879333 258.49505615 C-86.10304891 258.95549463 -84.42635486 259.41248943 -82.7487793 259.86621094 C-80.19485094 260.56050163 -77.64742115 261.27582272 -75.09960938 261.9921875 C-73.46389652 262.43880166 -71.82783922 262.88415664 -70.19140625 263.328125 C-69.43702774 263.54261292 -68.68264923 263.75710083 -67.90541077 263.97808838 C-63.17116822 265.22982977 -59.48705901 265.52054949 -54.625 264.3125 C-49.69669242 259.93178215 -48.65401846 255.67385306 -47.625 249.3125 C-53.70182034 246.91858764 -59.79963376 245.06948707 -66.109375 243.39453125 C-67.08739075 243.13242355 -68.06540649 242.87031586 -69.07305908 242.6002655 C-71.12645531 242.05123516 -73.18040039 241.50425385 -75.23486328 240.95922852 C-78.38106132 240.12338971 -81.52456103 239.277905 -84.66796875 238.43164062 C-86.66911565 237.89785537 -88.67041264 237.36463244 -90.671875 236.83203125 C-91.61045349 236.57895706 -92.54903198 236.32588287 -93.51605225 236.06513977 C-94.39086243 235.83457382 -95.26567261 235.60400787 -96.16699219 235.36645508 C-96.93340027 235.16232498 -97.69980835 234.95819489 -98.48944092 234.74787903 C-100.91498164 234.17932528 -100.91498164 234.17932528 -104.625 234.3125 Z M-106.625 321.3125 C-107.92058898 323.4217347 -107.92058898 323.4217347 -108.6496582 325.95019531 C-108.97189362 326.93524048 -109.29412903 327.92028564 -109.62612915 328.93518066 C-111.60681609 335.63215486 -113.44462242 342.35852028 -115.23046875 349.109375 C-115.67159476 350.76158177 -116.11319106 352.41366304 -116.55522156 354.06562805 C-117.73590018 358.48278102 -118.91070978 362.90147338 -120.0840683 367.32057571 C-122.04764316 374.71176091 -124.01992753 382.10063194 -125.99081421 389.48987007 C-126.49007315 391.36215607 -126.9890957 393.23450513 -127.48788452 395.10691643 C-130.69342693 407.13962769 -133.93497855 419.1615268 -137.23536873 431.16857529 C-137.84710929 433.39535226 -138.45734914 435.62253447 -139.06700134 437.84988403 C-139.26257787 438.56432993 -139.45815439 439.27877583 -139.65965748 440.0148716 C-140.045587 441.42476997 -140.43147174 442.83468059 -140.81730938 444.24460411 C-141.92329672 448.28235057 -143.03894071 452.31727448 -144.16146183 456.35045338 C-145.00973845 459.40959326 -145.84347714 462.47269996 -146.6796875 465.53515625 C-146.98170578 466.60647293 -147.28372406 467.67778961 -147.59489441 468.78157043 C-149.22709904 474.81704352 -150.11403503 480.05431953 -149.625 486.3125 C-147.63272296 489.36317422 -146.28817126 490.90676669 -142.6875 491.78515625 C-138.91016282 492.06416411 -137.32462473 491.84275456 -134.21069336 489.48266602 C-130.35376411 485.47725405 -129.51812994 480.17068728 -128.19140625 474.92578125 C-127.88066666 473.75635483 -127.56992706 472.58692841 -127.24977112 471.38206482 C-126.57128899 468.81942307 -125.89926283 466.25603498 -125.23760986 463.68908691 C-124.17555417 459.56920162 -123.09035334 455.45563598 -122.00146484 451.34277344 C-120.82392587 446.8899491 -119.64857373 442.4365824 -118.48132324 437.98104858 C-115.27284902 425.73446139 -112.00889466 413.50327959 -108.72265625 401.27734375 C-108.34992301 399.89050857 -108.34992301 399.89050857 -107.96965981 398.47565651 C-106.9706433 394.75906321 -105.97141033 391.04252826 -104.97176456 387.32610416 C-103.26146785 380.96730835 -101.55449498 374.60762854 -99.84985352 368.24731445 C-99.61853383 367.38429183 -99.38721415 366.52126921 -99.14888477 365.63209438 C-98.26542944 362.33587156 -97.38203301 359.039633 -96.49893379 355.74331474 C-96.09608559 354.23973513 -95.69308423 352.73619654 -95.28991413 351.23270321 C-94.91356719 349.82850678 -94.53782647 348.42414769 -94.16276073 347.0196085 C-93.35393115 343.99651819 -92.53052843 340.97907166 -91.6774292 337.96813965 C-91.40086487 336.99155396 -91.12430054 336.01496826 -90.83935547 335.00878906 C-90.60086884 334.18509827 -90.3623822 333.36140747 -90.1166687 332.51275635 C-89.36515937 329.14969263 -89.62294483 326.58588023 -90.625 323.3125 C-92.84783069 320.06374746 -94.24481182 319.41618769 -98.0625 318.375 C-102.13392124 318.30357156 -103.41378993 318.91631735 -106.625 321.3125 Z M111.6875 376.3125 C110.98560547 376.50328125 110.28371094 376.6940625 109.56054688 376.890625 C107.83111238 377.36121942 106.10293126 377.83641562 104.375 378.3125 C104.97618492 384.00665884 106.02229384 389.34086702 107.52050781 394.86132812 C107.84517784 396.08274002 107.84517784 396.08274002 108.17640686 397.3288269 C108.88843206 400.0018919 109.60808408 402.67283405 110.328125 405.34375 C110.83075136 407.22202883 111.3330032 409.10040791 111.8348999 410.97888184 C112.88741208 414.91358218 113.94354852 418.84728556 115.00244141 422.78027344 C116.34744168 427.77656666 117.68485984 432.77484898 119.01967239 437.77387238 C120.05694387 441.65606067 121.09763449 445.53732609 122.13936615 449.4183197 C122.63292682 451.25814128 123.12563414 453.09819204 123.61740875 454.93849182 C125.16918246 460.73958141 126.75251158 466.53078947 128.375 472.3125 C128.5923027 473.0948703 128.80960541 473.8772406 129.03349304 474.68331909 C129.66170884 476.92101809 130.3108061 479.15145467 130.96777344 481.38085938 C131.15162724 482.04173805 131.33548103 482.70261673 131.52490616 483.38352203 C132.3831563 486.21464841 133.17040884 488.10816457 135.27935791 490.21447754 C138.59753594 491.953054 141.78061127 492.04561295 145.375 491.3125 C148.5616503 489.5426177 148.5616503 489.5426177 150.375 486.3125 C151.16244981 480.38640455 150.04152904 474.78131382 148.45068359 469.09667969 C148.2457428 468.32930481 148.040802 467.56192993 147.82965088 466.77130127 C147.15498361 464.2559551 146.46441869 461.74528384 145.7734375 459.234375 C145.29362332 457.45934061 144.81476945 455.68404638 144.33682251 453.9085083 C143.07674321 449.23839174 141.802924 444.57212922 140.52636719 439.90649414 C139.24952136 435.22914287 137.98699089 430.5479327 136.72265625 425.8671875 C132.0645323 408.64709069 127.37439801 391.43724375 122.375 374.3125 C118.61173413 374.3125 115.28382789 375.31855691 111.6875 376.3125 Z M-93.625 423.3125 C-95.19636219 429.09531041 -96.76281504 434.87941948 -98.32470703 440.66479492 C-98.85688263 442.63326018 -99.39040463 444.60136194 -99.92529297 446.5690918 C-100.69331352 449.39537891 -101.45650333 452.22293225 -102.21875 455.05078125 C-102.45936157 455.93212234 -102.69997314 456.81346344 -102.94787598 457.72151184 C-103.16810425 458.54213608 -103.38833252 459.36276031 -103.61523438 460.20825195 C-103.81064819 460.92995071 -104.00606201 461.65164948 -104.20739746 462.3952179 C-104.73140997 464.47400671 -104.73140997 464.47400671 -104.625 467.3125 C-83.23881452 478.38264115 -60.32733934 485.30905967 -36.625 489.3125 C-35.88781738 489.43705566 -35.15063477 489.56161133 -34.39111328 489.68994141 C12.38650841 497.2347191 63.39379593 489.30265451 105.375 467.3125 C103.90985143 457.70836006 101.35123459 448.46662312 98.75 439.125 C98.32508339 437.58540712 97.90060106 436.04569432 97.4765625 434.50585938 C96.44770317 430.77333992 95.41300355 427.04248631 94.375 423.3125 C89.82749503 424.11106495 86.15320623 425.80698842 82.0625 427.875 C60.02247181 438.56964157 35.38530423 445.29563331 10.80859375 445.55078125 C10.02057877 445.56062042 9.23256378 445.57045959 8.42066956 445.58059692 C-25.9200238 445.92091485 -57.19774001 440.68995388 -87.93359375 424.578125 C-90.58177983 423.09972799 -90.58177983 423.09972799 -93.625 423.3125 Z " fill="#000000" transform="translate(255.625,-0.3125)"/>
<path d="M0 0 C3.125 1.875 3.125 1.875 5 5 C5.98876625 10.02622846 5.7769173 13.70513784 3.125 18.125 C-1.29486216 20.7769173 -4.97377154 20.98876625 -10 20 C-13.125 18.125 -13.125 18.125 -15 15 C-15.98876625 9.97377154 -15.7769173 6.29486216 -13.125 1.875 C-8.70513784 -0.7769173 -5.02622846 -0.98876625 0 0 Z " fill="#000000" transform="translate(261,66)"/>
</svg>
