<?xml version="1.0" standalone="no"?>
<!DOCTYPE svg PUBLIC "-//W3C//DTD SVG 20010904//EN"
 "http://www.w3.org/TR/2001/REC-SVG-20010904/DTD/svg10.dtd">
<svg version="1.0" xmlns="http://www.w3.org/2000/svg"
 width="55.000000pt" height="55.000000pt" viewBox="0 0 230.000000 173.000000"
 preserveAspectRatio="xMidYMid meet">
<metadata>
Created by potrace 1.10, written by Peter Selinger 2001-2011
</metadata>
<g transform="translate(0.000000,173.000000) scale(0.100000,-0.100000)"
fill="white" stroke="none">
<path d="M998 1523 c-44 -5 -43 -1 -27 -124 13 -104 15 -110 32 -103 11 4 12
15 6 47 -4 23 -8 45 -9 49 0 4 17 8 37 10 20 2 39 9 41 17 4 11 -4 13 -36 8
-43 -7 -52 1 -52 48 0 21 5 24 42 27 23 2 43 9 46 16 4 12 -4 13 -80 5z"/>
<path d="M1164 1462 c-35 -23 -45 -102 -18 -140 19 -28 64 -29 88 -3 26 29 32
95 12 126 -16 25 -58 34 -82 17z m54 -24 c27 -27 6 -118 -27 -118 -17 0 -31
26 -31 58 0 59 29 89 58 60z"/>
<path d="M1430 1363 c-25 -53 -46 -100 -48 -105 -2 -4 4 -8 13 -8 10 0 23 16
32 40 17 43 27 47 57 25 25 -19 36 -19 36 1 0 8 -13 20 -30 25 -35 13 -35 11
-15 49 18 34 20 35 55 15 29 -17 50 -19 50 -5 0 8 -89 60 -102 60 -2 0 -24
-44 -48 -97z"/>
<path d="M1326 1438 c-40 -129 -44 -149 -30 -155 19 -7 17 -9 34 62 12 48 19
60 35 60 22 0 37 14 28 27 -2 5 -13 6 -24 3 -11 -4 -19 -2 -19 4 0 15 -20 14
-24 -1z"/>
<path d="M817 1412 c-34 -38 -17 -66 48 -80 21 -4 40 -13 43 -20 5 -17 -27
-27 -47 -15 -9 5 -22 8 -29 5 -21 -7 16 -42 45 -42 23 0 63 31 63 50 0 21 -41
50 -70 50 -19 0 -33 6 -37 16 -8 22 16 34 44 21 28 -12 41 -3 23 18 -17 21
-63 19 -83 -3z"/>
<path d="M667 1342 c-38 -41 -14 -77 50 -77 41 0 48 -3 48 -20 0 -16 -7 -20
-32 -20 -43 0 -51 -12 -19 -26 23 -11 30 -10 54 8 57 42 27 96 -49 86 -34 -5
-39 -3 -39 15 0 24 23 35 39 19 8 -8 14 -8 23 1 10 10 10 15 -2 22 -24 15 -55
12 -73 -8z"/>
<path d="M1553 1259 c-44 -61 -49 -74 -34 -83 5 -3 24 17 42 44 37 54 55 66
74 50 9 -8 14 -6 19 6 4 11 0 18 -14 21 -11 3 -20 9 -20 14 0 24 -29 2 -67
-52z"/>
<path d="M532 1235 c-12 -15 -18 -34 -15 -46 9 -34 68 -89 95 -89 28 0 68 37
68 63 0 25 -28 20 -32 -5 -3 -25 -43 -37 -61 -19 -8 8 -1 21 24 47 l34 35 -25
19 c-34 27 -65 25 -88 -5z m68 -18 c0 -8 -9 -22 -21 -33 -17 -16 -22 -16 -29
-4 -11 18 -13 34 -3 43 12 12 53 7 53 -6z"/>
<path d="M1636 1196 c-41 -38 -48 -82 -18 -109 22 -20 54 -25 59 -9 3 6 -2 12
-10 12 -7 0 -22 9 -31 19 -14 15 -15 24 -6 40 14 27 17 27 47 -9 31 -37 44
-38 66 -1 22 37 21 47 -3 71 -29 29 -64 25 -104 -14z m84 -1 c6 -8 9 -23 5
-36 -7 -21 -7 -21 -34 5 -22 23 -24 28 -11 36 20 13 26 12 40 -5z"/>
<path d="M422 1118 c-7 -7 -12 -18 -12 -26 0 -8 -7 -20 -15 -26 -13 -9 -4 -19
56 -59 46 -32 75 -45 81 -39 6 6 -9 23 -46 48 -55 39 -70 69 -40 81 9 3 37 -9
68 -31 58 -40 66 -43 66 -22 0 16 -106 86 -130 86 -9 0 -21 -5 -28 -12z"/>
<path d="M1780 1090 c0 -6 11 -15 24 -20 33 -12 41 -29 23 -48 -15 -14 -18
-13 -37 11 -24 30 -60 35 -84 11 -22 -21 -20 -51 4 -66 11 -7 20 -21 20 -30 0
-10 2 -18 4 -18 2 0 31 18 65 41 51 34 61 45 61 69 0 18 -8 35 -22 44 -25 18
-58 21 -58 6z m-4 -71 c16 -17 16 -22 4 -30 -23 -14 -54 -6 -58 15 -4 16 12
35 29 36 3 0 14 -9 25 -21z"/>
<path d="M350 991 c0 -7 -10 -9 -25 -5 -19 5 -25 2 -25 -10 0 -9 7 -16 15 -16
8 0 15 -9 15 -20 0 -21 16 -28 22 -9 2 7 25 1 62 -15 44 -20 62 -23 77 -16 10
6 19 15 19 20 0 15 -22 23 -29 11 -10 -16 -112 28 -108 47 1 8 -4 17 -10 19
-7 3 -13 0 -13 -6z"/>
<path d="M655 971 c-46 -28 -66 -56 -72 -98 -9 -72 65 -143 150 -143 48 0 115
34 129 65 11 24 14 25 117 25 82 0 112 4 129 16 21 15 25 15 41 0 14 -13 41
-16 134 -16 l117 0 0 -25 c0 -37 27 -45 154 -45 l116 0 0 25 c0 24 -1 24 -82
22 -77 -2 -83 -1 -83 18 0 18 8 20 83 23 74 3 82 5 82 22 0 18 -7 20 -72 20
-79 0 -104 9 -95 34 5 13 22 16 87 16 73 0 80 2 80 20 0 19 -7 20 -124 20
-128 0 -140 -4 -148 -45 -3 -19 -10 -20 -114 -17 -91 3 -112 1 -123 -12 -17
-20 -40 -20 -66 0 -16 12 -41 15 -117 12 -96 -3 -96 -3 -119 26 -43 55 -145
74 -204 37z m45 -16 c0 -2 -11 -15 -25 -29 -59 -59 -7 -146 87 -146 25 0 29
-3 18 -10 -43 -28 -135 9 -154 61 -12 35 -1 75 29 105 22 21 45 32 45 19z
m126 -45 c27 -22 49 -44 49 -49 0 -5 -17 -23 -38 -39 -34 -28 -41 -30 -70 -20
-54 18 -80 48 -73 86 12 75 59 83 132 22z m650 -15 c10 -33 -1 -105 -16 -105
-4 0 -21 15 -39 34 l-33 34 28 36 c16 20 34 36 39 36 6 0 15 -16 21 -35z"/>
<path d="M1870 939 c-135 -49 -127 -44 -115 -58 8 -8 19 -8 43 1 46 18 51 3
12 -37 -27 -27 -31 -38 -22 -47 10 -10 15 -8 26 7 49 70 50 71 96 52 37 -14
41 -14 36 -1 -3 9 -6 17 -6 19 0 2 -16 7 -35 11 -55 10 -51 22 12 40 65 18 75
25 65 40 -5 7 -43 -2 -112 -27z"/>
<path d="M242 888 c7 -19 38 -22 38 -4 0 10 -9 16 -21 16 -12 0 -19 -5 -17
-12z"/>
<path d="M304 878 c-10 -15 6 -25 81 -47 44 -13 73 -17 79 -11 13 13 12 14
-77 42 -45 15 -80 21 -83 16z"/>
<path d="M220 781 c0 -16 -3 -42 -6 -58 l-6 -29 109 -15 c73 -11 110 -12 115
-5 12 18 -2 26 -48 26 l-45 0 3 41 c2 27 -1 44 -9 46 -9 3 -13 -8 -13 -36 0
-43 -8 -48 -58 -35 -21 6 -22 10 -16 50 5 37 4 44 -10 44 -11 0 -16 -9 -16
-29z"/>
<path d="M919 786 c-2 -3 -2 -30 1 -61 5 -53 9 -61 80 -140 l75 -83 56 -1 55
-1 82 89 82 89 0 56 0 56 -65 0 -65 0 0 -59 c0 -59 0 -59 -42 -84 l-43 -25
-48 25 -48 24 2 57 3 57 -60 3 c-33 2 -62 1 -65 -2z m86 -83 c12 -47 28 -69
66 -89 41 -21 71 -21 117 0 41 19 72 63 72 103 0 26 7 32 31 26 38 -10 22 -50
-52 -128 -64 -67 -75 -75 -109 -75 -33 0 -43 7 -103 74 -44 48 -67 83 -67 99
0 53 31 47 45 -10z"/>
<path d="M1880 735 c-21 -50 -50 -61 -50 -20 0 14 5 25 10 25 6 0 10 7 10 15
0 22 -27 19 -40 -4 -15 -30 -12 -56 9 -75 29 -26 54 -16 76 32 19 41 37 53 51
31 3 -6 1 -22 -7 -35 -15 -29 -4 -44 17 -22 35 34 13 98 -33 98 -19 0 -28 -9
-43 -45z"/>
<path d="M1094 736 c-3 -8 -4 -27 -2 -43 3 -25 7 -28 38 -28 28 0 36 5 44 27
7 19 6 31 -4 42 -16 20 -69 21 -76 2z"/>
<path d="M1034 403 c-38 -54 -50 -79 -54 -120 l-6 -53 59 0 60 0 -6 43 c-5 35
-2 47 19 71 l25 28 25 -23 c19 -18 24 -32 24 -71 l0 -48 55 0 55 0 0 46 c0 39
-8 56 -52 119 l-53 74 -52 0 -51 1 -48 -67z m160 -16 c49 -60 65 -107 36 -107
-4 0 -10 14 -14 31 -6 34 -56 89 -80 89 -25 0 -85 -59 -88 -87 -3 -30 -28 -44
-28 -16 0 17 61 111 80 123 30 19 60 8 94 -33z"/> 
</g>
</svg>
