<?xml version="1.0" encoding="UTF-8"?>
<svg version="1.1" xmlns="http://www.w3.org/2000/svg" width="100px" height="100px">
<path d="M0 0 C10.06953312 7.19252365 15.88743728 17.16775697 18.25 29.25 C18.4137515 31.84359431 18.48583032 34.44422503 18.47705078 37.04296875 C18.47734283 37.77565475 18.47763489 38.50834076 18.47793579 39.26322937 C18.47655641 41.65477874 18.46106188 44.04600591 18.4453125 46.4375 C18.4415774 48.1075829 18.43873278 49.77766802 18.43673706 51.44775391 C18.42913969 55.82072106 18.40952511 60.19355312 18.3873291 64.56646729 C18.36678629 69.03778252 18.35771738 73.50911982 18.34765625 77.98046875 C18.32627517 86.73704082 18.29218684 95.49350355 18.25 104.25 C18.93634521 103.96995117 19.62269043 103.68990234 20.32983398 103.40136719 C21.23032471 103.03688477 22.13081543 102.67240234 23.05859375 102.296875 C23.95118896 101.93432617 24.84378418 101.57177734 25.76342773 101.19824219 C35.67870536 97.4170995 46.39510702 99.07293596 56.25 102.25 C66.63082524 106.94330268 74.72061415 114.75401933 79.25 125.25 C79.25 125.91 79.25 126.57 79.25 127.25 C79.99765625 126.90066406 80.7453125 126.55132812 81.515625 126.19140625 C82.99289062 125.50884766 82.99289062 125.50884766 84.5 124.8125 C85.47453125 124.36003906 86.4490625 123.90757812 87.453125 123.44140625 C96.44769958 119.60991847 109.08825645 119.7172689 118.3125 122.875 C130.62110936 128.26590701 138.26889883 136.34292301 144.25 148.25 C144.74628906 147.98445312 145.24257813 147.71890625 145.75390625 147.4453125 C146.77291016 146.91550781 146.77291016 146.91550781 147.8125 146.375 C148.47378906 146.02695313 149.13507813 145.67890625 149.81640625 145.3203125 C160.14480229 140.77780766 172.05072395 140.83977344 182.75 144.19921875 C187.00343166 145.98698924 190.58910109 148.47276634 194.25 151.25 C195.136875 151.848125 196.02375 152.44625 196.9375 153.0625 C204.74242726 160.4455393 210.00036934 171.21992227 210.38142776 181.95125771 C210.38949952 183.41887151 210.39212723 184.88652146 210.39044189 186.35415649 C210.39489858 187.57164709 210.39489858 187.57164709 210.3994453 188.81373346 C210.40811151 191.53159451 210.40963884 194.24941139 210.41113281 196.96728516 C210.41576281 198.91746616 210.42078772 200.86764626 210.42617798 202.81782532 C210.43929482 208.11822237 210.44574667 213.41860676 210.45018864 218.71901751 C210.45312323 222.03705928 210.45722898 225.35509762 210.46169281 228.67313766 C210.47537183 239.0726306 210.48503398 249.47211566 210.4888947 259.87161696 C210.49336311 271.84033393 210.51085254 283.80893599 210.5398953 295.77761805 C210.56160253 305.04842979 210.57160394 314.31920944 210.57293582 323.59004629 C210.57397828 329.11660074 210.57976494 334.64304725 210.59775543 340.16957474 C210.61439084 345.38168341 210.6163176 350.59360485 210.60761642 355.80573082 C210.60685399 357.70380217 210.61108194 359.60188423 210.62107468 361.49992943 C210.73488742 384.49417025 206.78525747 405.24353884 197.25 426.25 C196.84523438 427.17683594 196.44046875 428.10367187 196.0234375 429.05859375 C181.11794524 461.17949373 151.81011173 485.38617795 119.12670898 497.92504883 C93.53008977 507.21006991 61.69832837 509.0112268 35.25 502.25 C34.00935791 501.94400879 34.00935791 501.94400879 32.74365234 501.63183594 C20.71732008 498.60930429 9.38444705 494.70051024 -1.75 489.25 C-2.35972656 488.95931641 -2.96945313 488.66863281 -3.59765625 488.36914062 C-11.64600376 484.49875695 -18.99044764 479.88648722 -26.25 474.6875 C-27.3625415 473.89255127 -27.3625415 473.89255127 -28.49755859 473.08154297 C-32.65226719 470.03012048 -36.3403335 466.80351008 -39.91192818 463.08941841 C-41.59260738 461.40750792 -43.31783286 459.88031393 -45.13571167 458.35006714 C-51.39484207 452.90665814 -57.18257054 446.97377343 -63.04736328 441.11376953 C-64.37850339 439.78726531 -65.70983806 438.46095632 -67.04135132 437.13482666 C-70.63872809 433.55049563 -74.23283084 429.9628999 -77.82591867 426.37426996 C-80.07421303 424.12891708 -82.32308871 421.88414802 -84.57213974 419.63955307 C-91.61916728 412.6061755 -98.6642073 405.57081618 -105.70634854 398.53254616 C-113.8173416 390.42603758 -121.93483866 382.32611711 -130.05804646 374.23184884 C-136.35146157 367.96007348 -142.6390775 361.68252259 -148.92234981 355.40058601 C-152.66913473 351.65484682 -156.41828678 347.91155411 -160.17349625 344.17425919 C-163.70467085 340.65960646 -167.22856228 337.13780926 -170.74710464 333.61051178 C-172.03523701 332.32161144 -173.3259114 331.03524553 -174.61937714 329.75169754 C-186.26015011 318.19492865 -195.75553313 307.42245579 -196.1875 290.125 C-195.80776682 278.97799369 -192.32757213 269.24072562 -184.640625 260.984375 C-180.11789889 256.77356104 -175.51555491 253.50269264 -169.75 251.25 C-168.87730469 250.89421875 -168.00460938 250.5384375 -167.10546875 250.171875 C-147.64122742 244.82430695 -129.57107788 252.92313164 -112.4934082 261.39941406 C-111.61058953 261.83756282 -111.61058953 261.83756282 -110.70993614 262.28456306 C-102.42590377 266.39957064 -94.15496459 270.54086928 -85.8828125 274.6796875 C-84.21168176 275.51556729 -82.54053925 276.35142355 -80.86938477 277.18725586 C-76.82945456 279.20790025 -72.78968224 281.22885992 -68.75 283.25 C-68.74853344 281.9529353 -68.74706688 280.65587061 -68.74555588 279.31950092 C-68.70981263 248.49278396 -68.65351204 217.66618017 -68.57207905 186.83955263 C-68.56206223 183.04090331 -68.55221799 179.24225356 -68.54248047 175.44360352 C-68.53956841 174.30929434 -68.53956841 174.30929434 -68.53659752 173.15206983 C-68.50562161 160.92618849 -68.48860921 148.70032589 -68.47680578 136.47441272 C-68.46437132 123.91872887 -68.43681831 111.363143 -68.39538693 98.80752105 C-68.37031701 91.06719757 -68.35687795 83.32703673 -68.35857043 75.58667209 C-68.35860385 69.63981879 -68.33754812 63.69315405 -68.30883217 57.7463665 C-68.30034349 55.31526727 -68.29857617 52.88413337 -68.30419731 50.45302582 C-68.33897488 33.09396773 -67.97120859 18.79300597 -55.75 5.25 C-40.2650772 -9.49362331 -18.00016105 -11.03527462 0 0 Z M-40.5625 22 C-45.56162303 29.4272685 -46.18662133 35.81832418 -46.12854004 44.54252625 C-46.13533523 46.21970229 -46.13533523 46.21970229 -46.1422677 47.93076068 C-46.15386965 51.66709458 -46.14425338 55.40306896 -46.13476562 59.1394043 C-46.13887164 61.82210485 -46.14417844 64.50477722 -46.15104675 67.18746948 C-46.16359109 72.95883487 -46.16559387 78.73012533 -46.16069031 84.50150108 C-46.15387375 92.85129663 -46.16641411 101.20097949 -46.18419749 109.55075488 C-46.21282234 123.10617865 -46.23035418 136.66159024 -46.23876953 150.21704102 C-46.23927671 151.02764328 -46.23978389 151.83824555 -46.24030644 152.67341153 C-46.24433919 159.25196384 -46.2478337 165.83051643 -46.25130367 172.40906906 C-46.25436162 178.16407029 -46.25763371 183.91907135 -46.26123047 189.67407227 C-46.26198439 190.88985375 -46.26198439 190.88985375 -46.26275355 192.13019647 C-46.27149428 205.63979552 -46.29192134 219.14935261 -46.32071257 232.65892345 C-46.33789755 240.98941703 -46.34447518 249.31979197 -46.33740652 257.65030096 C-46.3332309 263.35454866 -46.33956491 269.05872144 -46.35420525 274.76295169 C-46.36227141 278.05475795 -46.3637208 281.34634 -46.35538292 284.63815117 C-46.34704017 288.2050874 -46.35694766 291.77151911 -46.37145996 295.33842468 C-46.36111906 296.90173626 -46.36111906 296.90173626 -46.35056925 298.49662989 C-46.42093688 307.3405325 -46.42093688 307.3405325 -49.75 311.25 C-53.71300749 313.23150374 -57.44019066 312.9847084 -61.75 312.25 C-67.92933154 310.06486701 -73.70608211 306.80493174 -79.5078125 303.7890625 C-81.22212559 302.91747713 -82.93746667 302.04791104 -84.65377808 301.18026733 C-89.15411111 298.89979678 -93.64257569 296.5969518 -98.12817383 294.28765869 C-105.3105194 290.59386729 -112.50873023 286.93124095 -119.71017075 283.27485275 C-122.21369385 281.99904557 -124.71102476 280.71172341 -127.20779419 279.42276001 C-128.75180697 278.63389034 -130.29597803 277.84533037 -131.84033203 277.05712891 C-132.52521698 276.69964066 -133.21010193 276.3421524 -133.91574097 275.97383118 C-142.20281834 271.77346952 -151.88316416 269.20158795 -161.0546875 271.9375 C-166.86959591 274.57066607 -170.2636886 278.27737721 -173.125 284 C-174.33674211 290.30105895 -174.15128972 295.15360678 -170.5274353 300.57505798 C-165.44515 307.19854241 -159.3409318 312.92907102 -153.43603516 318.80688477 C-152.07826771 320.16572647 -150.72093365 321.52500133 -149.36399841 322.88467407 C-145.69287577 326.5606255 -142.01556334 330.23032598 -138.33694506 333.89877439 C-134.4790095 337.74789451 -130.62637906 341.60231802 -126.77304077 345.45603943 C-120.30196913 351.92617584 -113.82704468 358.39243594 -107.34960938 364.85620117 C-99.87319569 372.31689422 -92.40201646 379.78279598 -84.93382609 387.25172001 C-76.965965 395.22025799 -68.99429566 403.18497786 -61.0215106 411.1485889 C-58.73204459 413.43592925 -56.44328482 415.72397426 -54.15468216 418.01217842 C-50.55044055 421.61541115 -46.9436436 425.21606716 -43.33490181 428.81479263 C-42.01510303 430.1316852 -40.69613213 431.44940811 -39.37807655 432.76804543 C-13.77609909 458.37704253 13.9739722 476.2301815 50.25 482.25 C51.33152344 482.44078125 52.41304687 482.6315625 53.52734375 482.828125 C85.90849079 486.49776181 117.73188021 478.71586806 143.4765625 458.52734375 C167.97376915 438.41203181 184.07816169 410.84838424 187.7868042 379.11978149 C188.56617427 371.00889848 188.4064143 362.84856115 188.41113281 354.70849609 C188.41576803 352.83825077 188.42079362 350.96800638 188.42617798 349.09776306 C188.43922865 344.04219453 188.4457315 338.98663922 188.45018864 333.9310565 C188.45312879 330.76936003 188.45723515 327.60766711 188.46169281 324.44597244 C188.47534295 314.54361374 188.48502403 304.64126323 188.4888947 294.73889577 C188.49338176 283.3247817 188.51097011 271.910787 188.5398953 260.49670923 C188.56151387 251.65823668 188.57159893 242.81979775 188.57293582 233.98129904 C188.5739829 228.70835555 188.57987133 223.43552466 188.59775543 218.1626091 C188.61424107 213.20654731 188.61638921 208.25068279 188.60761642 203.29460335 C188.60684656 201.47898518 188.61118215 199.66335635 188.62107468 197.84776497 C188.63381417 195.36355746 188.62790702 192.8800468 188.61749268 190.39584351 C188.62554908 189.68279631 188.63360548 188.96974911 188.64190602 188.23509443 C188.57129782 181.00170849 186.44013162 174.44013162 181.25 169.25 C175.85710683 165.36711692 170.92110213 163.9781369 164.25 164.25 C158.58574452 165.45390099 153.45254658 168.06523671 150.09375 172.921875 C146.94816058 178.17950303 146.13138986 182.10917209 146.07641602 188.1484375 C146.05618126 189.93048584 146.05618126 189.93048584 146.03553772 191.74853516 C146.02509933 193.02776855 146.01466095 194.30700195 146.00390625 195.625 C145.97940449 197.63646726 145.95489151 199.64793445 145.92970943 201.65939331 C145.86899001 206.61724496 145.8181942 211.57518576 145.77319336 216.53320312 C145.74754276 219.31730818 145.71673077 222.10126779 145.68040466 224.88525391 C145.64656099 227.50723141 145.62065593 230.12932565 145.60340881 232.75146484 C145.58676682 233.93949707 145.57012482 235.1275293 145.55297852 236.3515625 C145.54267105 237.39650879 145.53236359 238.44145508 145.52174377 239.51806641 C145.24365644 242.31377401 144.79812582 243.92317192 143.25 246.25 C139.02845244 249.06436504 135.21024032 248.93304949 130.25 248.25 C127.67362529 246.36484777 126.65332572 245.05665143 125.25 242.25 C125.14853735 239.73990479 125.10634716 237.2566192 125.1081543 234.74609375 C125.10294266 233.58469124 125.10294266 233.58469124 125.09762573 232.39982605 C125.09026313 230.71433228 125.08492044 229.02882879 125.08133507 227.34332275 C125.07416849 224.66874355 125.05849738 221.9943477 125.03999329 219.31982422 C124.9875553 211.71373112 124.93961674 204.10773452 124.92407227 196.50146484 C124.91394287 191.84997703 124.8844862 187.19894501 124.84275246 182.54763794 C124.83050017 180.78080711 124.82531057 179.01391169 124.82755089 177.24703979 C125.17572521 162.27127219 125.17572521 162.27127219 118.51078796 149.33300781 C113.11349646 144.30208562 108.13183245 142.76323018 100.8125 142.9375 C95.1614366 143.62665407 91.45007371 146.0765946 87.4375 150 C83.22214657 156.2628108 81.80197842 162.05175768 81.84936523 169.53027344 C81.84238617 170.31505569 81.8354071 171.09983795 81.82821655 171.90840149 C81.80838857 174.47550492 81.80874056 177.04220219 81.80859375 179.609375 C81.79681086 181.40440951 81.78344442 183.19943425 81.76856995 184.9944458 C81.7325073 189.70118475 81.71221551 194.40783708 81.69702148 199.11468506 C81.67211659 206.66166548 81.63254731 214.20845475 81.57512093 221.75525665 C81.5588059 224.3876444 81.55501645 227.01985067 81.55210876 229.65228271 C81.54233393 231.26395991 81.53207089 232.87563424 81.52124023 234.48730469 C81.52379318 235.21776505 81.52634613 235.9482254 81.52897644 236.70082092 C81.49203869 240.35501623 81.41137788 243.22210436 79.25 246.25 C75.02845244 249.06436504 71.21024032 248.93304949 66.25 248.25 C63.67362529 246.36484777 62.65332572 245.05665143 61.25 242.25 C61.15308728 240.88701476 61.1166426 239.51946396 61.11196899 238.15304565 C61.10651566 237.29519974 61.10106232 236.43735382 61.09544373 235.55351257 C61.0944014 234.61014542 61.09335907 233.66677826 61.09228516 232.69482422 C61.08720444 231.70276474 61.08212372 230.71070526 61.07688904 229.68858337 C61.06616881 227.52835861 61.05755515 225.36812263 61.05076981 223.20788193 C61.03899877 219.78616251 61.01954872 216.36457033 60.99765015 212.94290161 C60.93598617 203.21197766 60.88204516 193.48106512 60.84863281 183.75 C60.82765737 177.80184242 60.79232557 171.85391403 60.74787521 165.9058876 C60.73373226 163.64058256 60.72499664 161.37523695 60.72182083 159.10988998 C60.71689824 155.93353158 60.69370303 152.75777797 60.66650391 149.58154297 C60.66951004 148.6503212 60.67251617 147.71909943 60.6756134 146.75965881 C60.58919371 139.94482106 59.70345705 134.09014321 55.09375 128.75390625 C54.3203125 128.11324219 53.546875 127.47257812 52.75 126.8125 C51.9765625 126.15378906 51.203125 125.49507813 50.40625 124.81640625 C45.35663986 121.14812062 39.22365535 121.70694042 33.25 122.25 C27.67611238 123.94462517 23.33155388 128.42255026 20.25 133.25 C17.95900646 138.63565369 17.95685583 143.5745644 17.96289062 149.32275391 C17.95605759 150.32182266 17.94922455 151.32089142 17.94218445 152.35023499 C17.92862741 154.512567 17.91955428 156.6749308 17.91447449 158.83729935 C17.906173 162.25829448 17.88565788 165.67902429 17.86193848 169.09994507 C17.80557897 177.59263518 17.77028793 186.08538959 17.73431396 194.57818604 C17.70309086 201.76199387 17.66392322 208.94567209 17.61405945 216.12937546 C17.59397168 219.50184601 17.58566876 222.87421667 17.57775879 226.24673462 C17.56478928 228.30983853 17.5512694 230.37293908 17.53710938 232.43603516 C17.53858223 233.8450132 17.53858223 233.8450132 17.54008484 235.28245544 C17.53181168 236.14594101 17.52353851 237.00942657 17.51501465 237.89907837 C17.51208153 238.6471557 17.50914841 239.39523304 17.5061264 240.16597939 C17.20553599 242.61178976 16.56482107 244.169228 15.25 246.25 C11.02845244 249.06436504 7.21024032 248.93304949 2.25 248.25 C-0.32637471 246.36484777 -1.34667428 245.05665143 -2.75 242.25 C-2.84925433 239.5390622 -2.8872299 236.85360998 -2.88130188 234.14233398 C-2.88447545 232.87016053 -2.88447545 232.87016053 -2.88771313 231.57228661 C-2.89373275 228.71354289 -2.89271157 225.85484306 -2.8918457 222.99609375 C-2.89487601 220.95293604 -2.8983971 218.90977901 -2.90237427 216.86662292 C-2.91027531 212.45716272 -2.91541279 208.04771066 -2.91866493 203.63824463 C-2.92456766 196.66228756 -2.94110235 189.68638172 -2.96000671 182.71044922 C-2.96634458 180.32318118 -2.9726702 177.93591312 -2.97898388 175.54864502 C-2.98214969 174.35284065 -2.9853155 173.15703629 -2.98857725 171.92499542 C-3.03066144 155.6796611 -3.06361469 139.43435002 -3.07592773 123.18896484 C-3.08431302 112.23839077 -3.10682419 101.28794287 -3.1452834 90.33743191 C-3.1650339 84.54227632 -3.17745205 78.74730931 -3.17244911 72.95211792 C-3.16779613 67.4953996 -3.18164404 62.03903815 -3.20946121 56.58239174 C-3.2163629 54.58380619 -3.2165106 52.58518367 -3.20926094 50.58659935 C-2.67944079 34.90876177 -2.67944079 34.90876177 -9.48938465 21.33950806 C-14.87646572 16.29697148 -19.87107416 14.76329938 -27.1875 14.9375 C-32.8385634 15.62665407 -36.54992629 18.0765946 -40.5625 22 Z " fill="#000000" transform="translate(248.75,6.75)"/>
</svg>
